<svg xmlns="http://www.w3.org/2000/svg" viewBox="0 0 700.25 222.13"><defs><style>.cls-1{fill:#068781;}.cls-2{fill:#06bbb5;}.cls-3{fill:#383838;}.cls-4{fill:#163e59;}.cls-5{fill:#355c76;}.cls-6{fill:#003251;}.cls-7{fill:#515151;}.cls-8{fill:#595959;}</style></defs><g id="Capa_2" data-name="Capa 2"><g id="Capa_1-2" data-name="Capa 1"><polygon class="cls-1" points="132.93 187.11 100.43 221.52 67.93 187.11 67.93 31.77 100.43 0.71 132.93 31.77 132.93 187.11"/><polygon class="cls-2" points="99.93 0.62 99.93 221.6 132.93 187.17 132.93 31.71 99.93 0.62"/><polygon class="cls-3" points="67.52 187.17 100.04 133.59 132.57 187.17 100.04 221.6 67.52 187.17"/><polygon class="cls-4" points="67.41 187.17 99.93 221.6 99.93 133.59 67.41 187.17"/><polygon class="cls-5" points="99.93 133.59 99.93 221.6 132.46 187.17 99.93 133.59"/><polygon class="cls-5" points="107.22 0.07 229.19 0.07 137.35 28.76 107.22 0.07"/><polygon class="cls-4" points="106.8 0.07 136.93 28.76 136.93 0.07 106.8 0.07"/><polygon class="cls-6" points="91.89 222.13 0 124.92 27.56 203.49 91.89 222.13"/><line class="cls-7" x1="137.35" y1="28.7" x2="107.22"/><polygon class="cls-2" points="136.93 28.7 136.93 12.29 228.77 0 136.93 28.7"/><polygon class="cls-1" points="106.8 0 136.93 28.7 136.93 12.29 106.8 0"/><path class="cls-8" d="M183,111.11c0-24.45,18.05-40.7,39.38-40.7A36.44,36.44,0,0,1,249.5,82.56L241,89.45a28,28,0,0,0-18.54-7.39c-15.59,0-27.4,12-27.4,29.05,0,17.23,11.81,29.53,27.4,29.53A27.17,27.17,0,0,0,241,133.26l8.7,6.89a36.56,36.56,0,0,1-27.4,12.14C201.09,152.29,183,135.72,183,111.11Z"/><path class="cls-8" d="M263.28,111.27c0-24.61,17.88-40.86,39.05-40.86s39.22,16.25,39.22,40.86c0,24.78-18.05,41-39.22,41S263.28,136.05,263.28,111.27Zm39.05,29.37c14.93,0,27.41-11.81,27.41-29.37s-12.48-29.21-27.41-29.21-27.24,11.65-27.24,29.21S287.4,140.64,302.33,140.64Z"/><path class="cls-8" d="M357.3,111.11c0-24.45,18.05-40.7,39.38-40.7a36.44,36.44,0,0,1,27.08,12.15l-8.53,6.89a28,28,0,0,0-18.55-7.39c-15.59,0-27.4,12-27.4,29.05,0,17.23,11.81,29.53,27.4,29.53a27.19,27.19,0,0,0,18.55-7.38l8.69,6.89a36.56,36.56,0,0,1-27.4,12.14C375.35,152.29,357.3,135.72,357.3,111.11Z"/><path class="cls-8" d="M434.92,111.27c0-23.14,16.24-40.86,37.41-40.86a34.83,34.83,0,0,1,29.86,17.4V71.89H514v78.44H502.19V134.57a34.44,34.44,0,0,1-29.86,17.72C451.16,152.29,434.92,134.57,434.92,111.27Zm39.54,29.37c15.1,0,27.41-12.63,27.41-28.88,0-17.06-12.48-29.7-27.57-29.7-15.26,0-27.41,13.46-27.41,29.21C446.89,127.19,459,140.64,474.46,140.64Z"/><path class="cls-8" d="M603.76,106v44.31H592V106.51c0-15.59-9.52-24.28-20.68-24.28s-22.48,6.56-22.48,25.1v43H537V71.56h11.81V88.3c3.61-12.64,15.59-17.89,25.11-17.89C592,70.41,603.76,84,603.76,106Z"/><path class="cls-8" d="M622,111.27c0-24.61,17.88-40.86,39-40.86s39.22,16.25,39.22,40.86c0,24.78-18,41-39.22,41S622,136.05,622,111.27Zm39,29.37c14.93,0,27.4-11.81,27.4-29.37S676,82.06,661,82.06s-27.24,11.65-27.24,29.21S646.1,140.64,661,140.64Z"/><text/></g></g></svg>